<svg version="1.1" xmlns="http://www.w3.org/2000/svg" x="0px" y="0px" viewBox="0 0 2674.9 417">
    <style>
        .st0, .st1 {
            fill: #6db33f;
        }
        .st3 {
            fill: #fff;
        }
    </style>
    <g>
        <path class="st0"
            d="M366.9,29c-5.8,14.1-13.3,26.6-21.6,37.8c-36.6-37.3-87.8-61-144.3-61C90,5.8-0.7,96-0.7,207.4 c0,58.2,24.9,110.6,64.4,147.6l7.5,6.7c34.9,29.5,80.3,47.4,129.7,47.4c106,0,193.3-82.7,200.8-187.1 C407.7,171.3,392.3,106.4,366.9,29z M92.9,356.7c-5.8,7.5-16.6,8.3-24.1,2.5s-8.3-16.6-2.5-24.1s16.6-8.3,24.1-2.5 C97.5,338.4,98.7,349.2,92.9,356.7z M365.7,296.4c-49.5,66.1-155.9,43.7-223.7,47c0,0-12.1,0.8-24.1,2.5c0,0,4.6-2.1,10.4-4.2 c47.8-16.6,70.3-20,99.4-34.9c54.5-27.9,108.9-89,119.8-152.2c-20.8,60.7-84,113.1-141.4,134.3c-39.5,14.6-110.6,28.7-110.6,28.7 l-2.9-1.7c-48.2-23.7-49.9-128.5,38.3-162.2c38.7-15,75.3-6.7,117.3-16.6c44.5-10.4,96.1-43.7,116.8-87.3 C388.1,120.1,416.4,229,365.7,296.4z"></path>
        <g>
            <path class="st1"
                d="M516.2,286.4c-5-2.5-8.3-8.3-8.3-15.4c0-10,7.9-18.3,18.3-18.3c3.7,0,7.1,1.2,9.6,2.5 c18.7,12.5,38.7,18.7,56.1,18.7c19.1,0,30.4-8.3,30.4-21.2v-0.8c0-15.4-20.8-20.4-43.7-27.4c-28.7-8.3-61.1-20-61.1-57.4v-0.8 c0-37,30.8-59.5,69.4-59.5c20.8,0,42.4,5.8,61.5,15.8c6.2,3.3,10.8,9.1,10.8,17c0,10.4-8.3,18.3-18.7,18.3c-3.7,0-5.8-0.8-8.7-2.1 c-15.8-8.3-32-13.3-45.7-13.3c-17.5,0-27.4,8.3-27.4,19.1v0.8c0,14.6,21.2,20.4,44.1,27.9c28.7,8.7,60.7,22,60.7,57v0.8 c0,41.2-32,61.5-72.3,61.5C565.7,309.7,538.6,301.8,516.2,286.4z"></path>
            <path class="st1"
                d="M680,129.7c0-12.5,9.6-22.5,22-22.5s22.5,10,22.5,22.5V143c14.6-20.4,34.9-36.6,66.5-36.6 c45.7,0,90.6,36.2,90.6,101.5v0.8c0,64.9-44.5,101.5-90.6,101.5c-32.4,0-52.8-16.2-66.5-34.5v69c0,12.5-10,22.5-22.5,22.5 c-12.1,0-22-9.6-22-22.5V129.7z M836.8,208.7v-0.8c0-37.8-25.4-62.4-55.7-62.4c-30.4,0-57,25.4-57,62.4v0.8 c0,37.4,26.6,62.4,57,62.4C811.4,271.5,836.8,247.3,836.8,208.7z"></path>
            <path class="st1"
                d="M899.1,129.7c0-12.5,9.6-22.5,22-22.5s22.5,10,22.5,22.5v10.8c2.1-16.6,29.5-33.3,49.1-33.3 c14.1,0,22,9.1,22,22c0,11.6-7.9,19.5-17.9,21.6c-32,5.4-53.6,33.3-53.6,71.9v64.4c0,12.1-10,22-22.5,22c-12.1,0-22-9.6-22-22 V129.7H899.1z"></path>
            <path class="st1"
                d="M1032.6,130.1c0-12.5,9.6-22.5,22-22.5s22.5,10,22.5,22.5v157.6c0,12.5-10,22-22.5,22c-12.1,0-22-9.6-22-22 V130.1z"></path>
            <path class="st1"
                d="M1100,130.1c0-12.5,9.6-22.5,22-22.5s22.5,10,22.5,22.5v9.1c12.5-18.3,30.8-32,61.1-32 c44.1,0,69.4,29.5,69.4,74.8v105.2c0,12.5-9.6,22-22,22s-22.5-9.6-22.5-22v-91.5c0-30.4-15-47.8-42-47.8 c-25.8,0-44.1,18.3-44.1,48.6v91.1c0,12.5-10,22-22.5,22c-12.1,0-22-9.6-22-22L1100,130.1L1100,130.1z"></path>
            <path class="st1"
                d="M1472.1,106.8c-12.5,0-22.5,10-22.5,22.5v13.3c-14.6-20.4-34.9-36.6-66.5-36.6c-45.7,0-90.6,36.2-90.6,101.5 v0.8c0,64.9,44.5,101.5,90.6,101.5c32.4,0,52.8-16.2,66.5-34.1c-2.1,35.3-23.7,53.6-61.5,53.6c-22.5,0-42-5.4-59.9-15.4 c-2.1-1.2-5-1.7-7.9-1.7c-10.4,0-19.1,8.3-19.1,18.3c0,8.7,5,15,12.5,17.9c23.7,11.6,48.2,17.5,75.7,17.5 c35.3,0,62.8-8.3,80.3-26.2c16.2-16.2,24.9-40.7,24.9-73.6V129.7C1494.6,116.8,1484.6,106.8,1472.1,106.8z M1393.5,271 c-30.8,0-55.7-24.1-55.7-62.8v-0.8c0-37.8,25.4-62.4,55.7-62.4s57,25.4,57,62.4v0.8C1450.9,245.7,1424.3,271,1393.5,271z"></path>
            <path class="st1"
                d="M1077.5,53.6c0,12.5-10,22.5-22.5,22.5s-22.5-10-22.5-22.5s10-22.5,22.5-22.5 C1067.1,30.7,1077.5,40.7,1077.5,53.6z"></path>
        </g>
        <g>
            <path class="st1"
                d="M1545.7,153.8c-12.5,0-22.9-10.4-22.9-22.9c0-12.9,10.4-22.9,22.9-22.9c12.9,0,22.9,10.4,22.9,22.9 S1558.6,153.8,1545.7,153.8z M1545.7,111.4c-10.8,0-19.5,8.7-19.5,19.5s8.7,19.5,19.5,19.5s19.5-8.7,19.5-19.5 C1565.2,119.7,1556.5,111.4,1545.7,111.4z M1551.9,143.8l-6.7-10.4h-4.6v10.4h-3.7v-26.2h10.8c4.6,0,8.7,3.3,8.7,7.9 c0,5.8-5.4,7.9-6.7,7.9l7.1,10.4H1551.9L1551.9,143.8z M1547.4,120.9h-6.7v9.1h7.1c2.1,0,4.6-1.7,4.6-4.6 C1552.4,122.6,1549.9,120.9,1547.4,120.9z"></path>
        </g>
        <g>
            <path class="st1"
                d="M1652.3,260.1c0,20-12.8,34.1-30,34.1c-10.4,0-18.8-5.2-23.7-13.7v12.2h-9.4v-88h9.4v35.1 c4.9-8.6,13.2-13.7,23.7-13.7C1639.4,226.1,1652.3,240.2,1652.3,260.1z M1642.3,260.1c0-15-9.1-25.6-21.8-25.6 c-12.8,0-21.9,10.6-21.9,25.6s9.1,25.7,21.9,25.7C1633.3,285.8,1642.3,275.1,1642.3,260.1z"></path>
            <path class="st1"
                d="M1668,313.3l2.3-8.1c2.3,1.1,4.9,1.6,7.7,1.6c4.2,0,6.9-1.4,9.4-5.8l3.8-8.1l-28.3-65.3h10.4l22.8,54.1 l21.5-54.1h10.2l-29.7,72.4c-4.5,11.1-10.8,15.2-19.8,15.4C1674.6,315.4,1671,314.6,1668,313.3z"></path>
            <path class="st1"
                d="M1861.3,206.2l-38.1,86.5h-10.7l-38.1-86.5h10.7l32.9,74.4l32.7-74.4L1861.3,206.2L1861.3,206.2z"></path>
            <path class="st1"
                d="M1877.1,206.2h9.8l32.1,60.3l32.1-60.3h9.8v86.5h-9.8v-65.3l-32.1,60.3l-32.1-60.3v65.3h-9.8V206.2z"></path>
            <path class="st1"
                d="M1977.2,227.6h10.1l16.2,52.5l17.8-52.5h8.2l17.8,52.5l16.2-52.5h10.1l-21.9,65.1h-8.9l-17.2-52l-17.5,52 h-8.9L1977.2,227.6z"></path>
            <path class="st1"
                d="M2140.1,253.1v39.7h-9.4v-10.2c-4.7,7.7-14.4,11.7-22.9,11.7c-13.7,0-23.8-7.9-23.8-20.8 c0-13,11.6-21.7,25.6-21.7c7,0,14.5,1.5,21.2,3.7v-2.4c0-8.8-3.5-18.9-17.6-18.9c-6.5,0-13.1,2.9-19,5.9l-3.8-7.7 c9.3-4.7,17.1-6.3,23.4-6.3C2131.4,226.1,2140.1,237.3,2140.1,253.1z M2130.7,272.3v-9.9c-5.9-1.6-12.6-2.6-19.6-2.6 c-9.7,0-17.9,5.5-17.9,13.3c0,8.1,7,12.8,16.2,12.8C2118,285.9,2128.2,281.5,2130.7,272.3z"></path>
            <path class="st1"
                d="M2194.9,226.1v8.4c-14.7,0-25.2,9.1-25.2,21.8v36.4h-9.4v-65.1h9.4v12.7 C2173.6,231.7,2182.9,226.1,2194.9,226.1z"></path>
            <path class="st1"
                d="M2257.8,278l5.8,6.2c-5.7,6.2-17.1,10.1-26.2,10.1c-17.4,0-33-14.2-33-34.2c0-19.4,14.6-33.9,32.1-33.9 c19.6,0,30.8,14.9,30.8,37.6H2214c1.4,12.7,10.3,22,23.2,22C2245,285.8,2253.8,282.4,2257.8,278z M2214.3,255.3h43.8 c-1.3-11.7-8.2-20.8-21.2-20.8C2225.4,234.6,2216.1,242.7,2214.3,255.3z"></path>
            <path class="st1"
                d="M2344.6,215.6h-29.1v-9.3h68v9.3h-29.1v77.2h-9.8L2344.6,215.6L2344.6,215.6z"></path>
            <path class="st1"
                d="M2451.6,253.1v39.7h-9.4v-10.2c-4.7,7.7-14.4,11.7-22.9,11.7c-13.7,0-23.8-7.9-23.8-20.8 c0-13,11.6-21.7,25.6-21.7c7,0,14.5,1.5,21.2,3.7v-2.4c0-8.8-3.5-18.9-17.6-18.9c-6.5,0-13.1,2.9-19,5.9l-3.8-7.7 c9.3-4.7,17.1-6.3,23.4-6.3C2442.9,226.1,2451.6,237.3,2451.6,253.1z M2442.2,272.3v-9.9c-5.9-1.6-12.6-2.6-19.6-2.6 c-9.7,0-17.9,5.5-17.9,13.3c0,8.1,7,12.8,16.2,12.8C2429.4,285.9,2439.6,281.5,2442.2,272.3z"></path>
            <path class="st1"
                d="M2526.3,251.3v41.4h-9.4v-40.2c0-10.6-6.7-18-16.2-18c-11,0-20.1,7.7-20.1,16.7v41.4h-9.4v-65.1h9.4v10.4 c3.8-6.9,12.2-12,21.4-12C2516.2,226.1,2526.3,236.6,2526.3,251.3z"></path>
            <path class="st1"
                d="M2542.6,285.3l38.4-48.7h-37.6v-8.9h50.4v7.4l-38.5,48.7h38.8v8.9h-51.4L2542.6,285.3L2542.6,285.3z"></path>
            <path class="st1"
                d="M2665.4,227.6v65.1h-9.4v-10.4c-3.8,6.9-12.2,12-21.4,12c-14.4,0-24.4-10.4-24.4-25.2v-41.4h9.4v40.2 c0,10.6,6.7,18,16.2,18c11,0,20.1-7.7,20.1-16.7v-41.4h9.5V227.6z"></path>
        </g>
    </g>
    <path class="st3"
        d="M92.9,356.7c-5.8,7.5-16.6,8.3-24.1,2.5s-8.3-16.6-2.5-24.1s16.6-8.3,24.1-2.5 C97.5,338.4,98.7,349.2,92.9,356.7z"></path>
    <path class="st3"
        d="M365.7,296.4c-49.5,66.1-155.9,43.7-223.7,47c0,0-12.1,0.8-24.1,2.5c0,0,4.6-2.1,10.4-4.2 c47.8-16.6,70.3-20,99.4-34.9c54.5-27.9,108.9-89,119.8-152.2c-20.8,60.7-84,113.1-141.4,134.3c-39.5,14.6-110.6,28.7-110.6,28.7 l-2.9-1.7c-48.2-23.7-49.9-128.5,38.3-162.2c38.7-15,75.3-6.7,117.3-16.6c44.5-10.4,96.1-43.7,116.8-87.3 C388.1,120.1,416.4,229,365.7,296.4z"></path>
</svg>
